# xmcd
#
# Track frame offsets:
#  150
#  15693
#  32008
#  47827
#  64327
#  77760
#  91878
#  104964
#  117859
#  132974
#  146852
#  165165
#  179348
#  198631
#  219204
#  237778
#
# Disc length: 3361 seconds
#
# Revision: 0
# Processed by: cddbd v1.4PL0 Copyright (c) Steve Scherf et al.
# Submitted via: AltoMP3_Maker 3.0
#
DISCID=e00d1f10
DTITLE=Bill Wyman and The Rhythm Kings - anyway the wind blows
DYEAR=1900
DGENRE=
TTITLE0=Anyway the wind blows
TTITLE1=Spooky
TTITLE2=Walking one and only
TTITLE3=Mojo boogie
TTITLE4=Too late
TTITLE5=Every sixty seconds
TTITLE6=Ring my bell
TTITLE7=Days like this
TTITLE8=He's a real gone guy
TTITLE9=A true romance
TTITLE10=Gee baby ain't i good to you
TTITLE11=When hollywood goes black and tan
TTITLE12=Crazy he calls me
TTITLE13=Struttin' our stuff
TTITLE14=Sugar babe
TTITLE15=Gonna find me a new love
EXTD=
EXTT0=
EXTT1=
EXTT2=
EXTT3=
EXTT4=
EXTT5=
EXTT6=
EXTT7=
EXTT8=
EXTT9=
EXTT10=
EXTT11=
EXTT12=
EXTT13=
EXTT14=
EXTT15=
PLAYORDER=
